<mxfile host="app.diagrams.net" agent="Mozilla/5.0 (Windows NT 10.0; Win64; x64) AppleWebKit/537.36 (KHTML, like Gecko) Chrome/132.0.0.0 Safari/537.36" version="26.0.15">
  <diagram name="페이지-1" id="oIEinBPrremfgdW8j_NK">
    <mxGraphModel dx="1434" dy="772" grid="1" gridSize="10" guides="1" tooltips="1" connect="1" arrows="1" fold="1" page="1" pageScale="1" pageWidth="827" pageHeight="1169" math="0" shadow="0">
      <root>
        <mxCell id="0" />
        <mxCell id="1" parent="0" />
        <mxCell id="CnKnZrLhh15UKcQ67cIM-1" value="server 0" style="rounded=1;whiteSpace=wrap;html=1;" vertex="1" parent="1">
          <mxGeometry x="219" y="182" width="100" height="100" as="geometry" />
        </mxCell>
        <mxCell id="CnKnZrLhh15UKcQ67cIM-2" value="server 1" style="rounded=1;whiteSpace=wrap;html=1;fillColor=#f8cecc;strokeColor=#b85450;" vertex="1" parent="1">
          <mxGeometry x="359" y="182" width="100" height="100" as="geometry" />
        </mxCell>
        <mxCell id="CnKnZrLhh15UKcQ67cIM-3" value="server 2" style="rounded=1;whiteSpace=wrap;html=1;" vertex="1" parent="1">
          <mxGeometry x="499" y="182" width="100" height="100" as="geometry" />
        </mxCell>
        <mxCell id="CnKnZrLhh15UKcQ67cIM-4" value="server 3" style="rounded=1;whiteSpace=wrap;html=1;" vertex="1" parent="1">
          <mxGeometry x="639" y="182" width="100" height="100" as="geometry" />
        </mxCell>
        <mxCell id="CnKnZrLhh15UKcQ67cIM-5" value="0" style="text;html=1;align=center;verticalAlign=middle;resizable=0;points=[];autosize=1;strokeColor=none;fillColor=none;" vertex="1" parent="1">
          <mxGeometry x="254" y="120" width="30" height="30" as="geometry" />
        </mxCell>
        <mxCell id="CnKnZrLhh15UKcQ67cIM-6" value="1" style="text;html=1;align=center;verticalAlign=middle;resizable=0;points=[];autosize=1;strokeColor=none;fillColor=none;" vertex="1" parent="1">
          <mxGeometry x="534" y="120" width="30" height="30" as="geometry" />
        </mxCell>
        <mxCell id="CnKnZrLhh15UKcQ67cIM-7" value="2" style="text;html=1;align=center;verticalAlign=middle;resizable=0;points=[];autosize=1;strokeColor=none;fillColor=none;" vertex="1" parent="1">
          <mxGeometry x="674" y="120" width="30" height="30" as="geometry" />
        </mxCell>
        <mxCell id="CnKnZrLhh15UKcQ67cIM-8" value="서버 인덱스" style="text;html=1;align=center;verticalAlign=middle;resizable=0;points=[];autosize=1;strokeColor=none;fillColor=none;" vertex="1" parent="1">
          <mxGeometry x="89" y="120" width="90" height="30" as="geometry" />
        </mxCell>
        <mxCell id="CnKnZrLhh15UKcQ67cIM-9" value="서버" style="text;html=1;align=center;verticalAlign=middle;resizable=0;points=[];autosize=1;strokeColor=none;fillColor=none;" vertex="1" parent="1">
          <mxGeometry x="129" y="217" width="50" height="30" as="geometry" />
        </mxCell>
        <mxCell id="CnKnZrLhh15UKcQ67cIM-10" value="키" style="text;html=1;align=center;verticalAlign=middle;resizable=0;points=[];autosize=1;strokeColor=none;fillColor=none;" vertex="1" parent="1">
          <mxGeometry x="129" y="318" width="40" height="30" as="geometry" />
        </mxCell>
        <mxCell id="CnKnZrLhh15UKcQ67cIM-11" value="key1&lt;br&gt;key2&lt;div&gt;key5&lt;/div&gt;&lt;div&gt;key6&lt;/div&gt;" style="text;html=1;align=center;verticalAlign=middle;resizable=0;points=[];autosize=1;strokeColor=none;fillColor=none;" vertex="1" parent="1">
          <mxGeometry x="244" y="293" width="50" height="70" as="geometry" />
        </mxCell>
        <mxCell id="CnKnZrLhh15UKcQ67cIM-12" value="key0&lt;div&gt;key4&lt;/div&gt;&lt;div&gt;key6&lt;/div&gt;" style="text;html=1;align=center;verticalAlign=middle;resizable=0;points=[];autosize=1;strokeColor=none;fillColor=none;" vertex="1" parent="1">
          <mxGeometry x="524" y="298" width="50" height="60" as="geometry" />
        </mxCell>
        <mxCell id="CnKnZrLhh15UKcQ67cIM-13" value="key3" style="text;html=1;align=center;verticalAlign=middle;resizable=0;points=[];autosize=1;strokeColor=none;fillColor=none;" vertex="1" parent="1">
          <mxGeometry x="664" y="313" width="50" height="30" as="geometry" />
        </mxCell>
        <mxCell id="CnKnZrLhh15UKcQ67cIM-14" value="" style="shape=mxgraph.mockup.markup.redX;fillColor=#ff0000;html=1;shadow=0;whiteSpace=wrap;strokeColor=none;" vertex="1" parent="1">
          <mxGeometry x="401.5" y="127.5" width="15" height="15" as="geometry" />
        </mxCell>
        <mxCell id="CnKnZrLhh15UKcQ67cIM-15" value="serverIndex=hash % 3" style="text;html=1;align=center;verticalAlign=middle;resizable=0;points=[];autosize=1;strokeColor=none;fillColor=none;" vertex="1" parent="1">
          <mxGeometry x="353" y="40" width="140" height="30" as="geometry" />
        </mxCell>
      </root>
    </mxGraphModel>
  </diagram>
</mxfile>
